<svg width="512.00003" height="512" xmlns="http://www.w3.org/2000/svg">

 <g>
  <title>background</title>
  <rect fill="none" id="canvas_background" height="402" width="582" y="-1" x="-1"/>
 </g>
 <g>
  <title>Layer 1</title>
  <path fill="#ffff56" fill-rule="nonzero" id="path4878" d="m511.999969,255.999985c0,141.384903 -114.615112,256.000015 -256.000015,256.000015c-141.384857,0 -256.000017,-114.615112 -256.000017,-256.000015c0,-141.384895 114.61516,-256.00001 256.000017,-256.00001c141.384903,0 256.000015,114.615115 256.000015,256.00001z"/>
  <path fill="#ffffff" fill-rule="evenodd" id="path2518" d="m255.967545,39.749977c-15.355698,37.647957 -24.617508,62.274223 -41.714096,98.803123c10.482391,11.111237 23.348999,24.050827 44.24411,38.664917c-22.464417,-9.243988 -37.787918,-18.524704 -49.239319,-28.155334c-21.880295,45.656601 -56.160385,110.692383 -125.726006,235.687317c54.676216,-31.56543 97.060112,-51.025909 136.559898,-58.451477c-1.695984,-7.295074 -2.660492,-15.186096 -2.595001,-23.419556l0.065002,-1.751587c0.867706,-35.02951 19.089996,-61.967224 40.676117,-60.138214c21.58609,1.829025 38.364716,31.72583 37.497101,66.755371c-0.163086,6.591461 -0.906494,12.932343 -2.205688,18.813446c39.070892,7.643005 81.001709,27.053619 134.93811,58.192017c-10.635315,-19.580109 -20.128113,-37.230164 -29.19342,-54.04007c-14.279175,-11.067413 -29.173279,-25.47171 -59.554291,-41.065247c20.882202,5.426056 35.833405,11.68631 47.487579,18.683716c-92.169189,-171.603378 -99.632996,-194.405907 -131.240097,-268.578423z"/>
 </g>
</svg>